<svg xmlns="http://www.w3.org/2000/svg" viewBox="0 0 739 95" width="739" height="95" role="img" aria-label="GitHub contributions for ishanmalu"><style>.l0{fill:#1e1e1d} .l1{fill:#1f4a2c} .l2{fill:#2f6b2c} .l3{fill:#4f9c46} .l4{fill:#8fbf7a}</style><rect x="0" y="42" width="11" height="11" rx="2" class="l0"><title>2025-08-27 · level 0</title></rect><rect x="0" y="56" width="11" height="11" rx="2" class="l0"><title>2025-08-28 · level 0</title></rect><rect x="0" y="70" width="11" height="11" rx="2" class="l0"><title>2025-08-29 · level 0</title></rect><rect x="0" y="84" width="11" height="11" rx="2" class="l0"><title>2025-08-30 · level 0</title></rect><rect x="14" y="0" width="11" height="11" rx="2" class="l0"><title>2025-08-31 · level 0</title></rect><rect x="14" y="14" width="11" height="11" rx="2" class="l0"><title>2025-09-01 · level 0</title></rect><rect x="14" y="28" width="11" height="11" rx="2" class="l0"><title>2025-09-02 · level 0</title></rect><rect x="14" y="42" width="11" height="11" rx="2" class="l0"><title>2025-09-03 · level 0</title></rect><rect x="14" y="56" width="11" height="11" rx="2" class="l0"><title>2025-09-04 · level 0</title></rect><rect x="14" y="70" width="11" height="11" rx="2" class="l0"><title>2025-09-05 · level 0</title></rect><rect x="14" y="84" width="11" height="11" rx="2" class="l0"><title>2025-09-06 · level 0</title></rect><rect x="28" y="0" width="11" height="11" rx="2" class="l0"><title>2025-09-07 · level 0</title></rect><rect x="28" y="14" width="11" height="11" rx="2" class="l0"><title>2025-09-08 · level 0</title></rect><rect x="28" y="28" width="11" height="11" rx="2" class="l0"><title>2025-09-09 · level 0</title></rect><rect x="28" y="42" width="11" height="11" rx="2" class="l0"><title>2025-09-10 · level 0</title></rect><rect x="28" y="56" width="11" height="11" rx="2" class="l0"><title>2025-09-11 · level 0</title></rect><rect x="28" y="70" width="11" height="11" rx="2" class="l0"><title>2025-09-12 · level 0</title></rect><rect x="28" y="84" width="11" height="11" rx="2" class="l0"><title>2025-09-13 · level 0</title></rect><rect x="42" y="0" width="11" height="11" rx="2" class="l0"><title>2025-09-14 · level 0</title></rect><rect x="42" y="14" width="11" height="11" rx="2" class="l0"><title>2025-09-15 · level 0</title></rect><rect x="42" y="28" width="11" height="11" rx="2" class="l0"><title>2025-09-16 · level 0</title></rect><rect x="42" y="42" width="11" height="11" rx="2" class="l0"><title>2025-09-17 · level 0</title></rect><rect x="42" y="56" width="11" height="11" rx="2" class="l0"><title>2025-09-18 · level 0</title></rect><rect x="42" y="70" width="11" height="11" rx="2" class="l0"><title>2025-09-19 · level 0</title></rect><rect x="42" y="84" width="11" height="11" rx="2" class="l0"><title>2025-09-20 · level 0</title></rect><rect x="56" y="0" width="11" height="11" rx="2" class="l0"><title>2025-09-21 · level 0</title></rect><rect x="56" y="14" width="11" height="11" rx="2" class="l0"><title>2025-09-22 · level 0</title></rect><rect x="56" y="28" width="11" height="11" rx="2" class="l0"><title>2025-09-23 · level 0</title></rect><rect x="56" y="42" width="11" height="11" rx="2" class="l0"><title>2025-09-24 · level 0</title></rect><rect x="56" y="56" width="11" height="11" rx="2" class="l0"><title>2025-09-25 · level 0</title></rect><rect x="56" y="70" width="11" height="11" rx="2" class="l0"><title>2025-09-26 · level 0</title></rect><rect x="56" y="84" width="11" height="11" rx="2" class="l0"><title>2025-09-27 · level 0</title></rect><rect x="70" y="0" width="11" height="11" rx="2" class="l0"><title>2025-09-28 · level 0</title></rect><rect x="70" y="14" width="11" height="11" rx="2" class="l0"><title>2025-09-29 · level 0</title></rect><rect x="70" y="28" width="11" height="11" rx="2" class="l0"><title>2025-09-30 · level 0</title></rect><rect x="70" y="42" width="11" height="11" rx="2" class="l0"><title>2025-10-01 · level 0</title></rect><rect x="70" y="56" width="11" height="11" rx="2" class="l0"><title>2025-10-02 · level 0</title></rect><rect x="70" y="70" width="11" height="11" rx="2" class="l0"><title>2025-10-03 · level 0</title></rect><rect x="70" y="84" width="11" height="11" rx="2" class="l0"><title>2025-10-04 · level 0</title></rect><rect x="84" y="0" width="11" height="11" rx="2" class="l0"><title>2025-10-05 · level 0</title></rect><rect x="84" y="14" width="11" height="11" rx="2" class="l0"><title>2025-10-06 · level 0</title></rect><rect x="84" y="28" width="11" height="11" rx="2" class="l0"><title>2025-10-07 · level 0</title></rect><rect x="84" y="42" width="11" height="11" rx="2" class="l0"><title>2025-10-08 · level 0</title></rect><rect x="84" y="56" width="11" height="11" rx="2" class="l0"><title>2025-10-09 · level 0</title></rect><rect x="84" y="70" width="11" height="11" rx="2" class="l0"><title>2025-10-10 · level 0</title></rect><rect x="84" y="84" width="11" height="11" rx="2" class="l0"><title>2025-10-11 · level 0</title></rect><rect x="98" y="0" width="11" height="11" rx="2" class="l0"><title>2025-10-12 · level 0</title></rect><rect x="98" y="14" width="11" height="11" rx="2" class="l0"><title>2025-10-13 · level 0</title></rect><rect x="98" y="28" width="11" height="11" rx="2" class="l0"><title>2025-10-14 · level 0</title></rect><rect x="98" y="42" width="11" height="11" rx="2" class="l0"><title>2025-10-15 · level 0</title></rect><rect x="98" y="56" width="11" height="11" rx="2" class="l0"><title>2025-10-16 · level 0</title></rect><rect x="98" y="70" width="11" height="11" rx="2" class="l0"><title>2025-10-17 · level 0</title></rect><rect x="98" y="84" width="11" height="11" rx="2" class="l0"><title>2025-10-18 · level 0</title></rect><rect x="112" y="0" width="11" height="11" rx="2" class="l0"><title>2025-10-19 · level 0</title></rect><rect x="112" y="14" width="11" height="11" rx="2" class="l0"><title>2025-10-20 · level 0</title></rect><rect x="112" y="28" width="11" height="11" rx="2" class="l0"><title>2025-10-21 · level 0</title></rect><rect x="112" y="42" width="11" height="11" rx="2" class="l0"><title>2025-10-22 · level 0</title></rect><rect x="112" y="56" width="11" height="11" rx="2" class="l0"><title>2025-10-23 · level 0</title></rect><rect x="112" y="70" width="11" height="11" rx="2" class="l0"><title>2025-10-24 · level 0</title></rect><rect x="112" y="84" width="11" height="11" rx="2" class="l0"><title>2025-10-25 · level 0</title></rect><rect x="126" y="0" width="11" height="11" rx="2" class="l0"><title>2025-10-26 · level 0</title></rect><rect x="126" y="14" width="11" height="11" rx="2" class="l0"><title>2025-10-27 · level 0</title></rect><rect x="126" y="28" width="11" height="11" rx="2" class="l0"><title>2025-10-28 · level 0</title></rect><rect x="126" y="42" width="11" height="11" rx="2" class="l0"><title>2025-10-29 · level 0</title></rect><rect x="126" y="56" width="11" height="11" rx="2" class="l0"><title>2025-10-30 · level 0</title></rect><rect x="126" y="70" width="11" height="11" rx="2" class="l0"><title>2025-10-31 · level 0</title></rect><rect x="126" y="84" width="11" height="11" rx="2" class="l0"><title>2025-11-01 · level 0</title></rect><rect x="140" y="0" width="11" height="11" rx="2" class="l0"><title>2025-11-02 · level 0</title></rect><rect x="140" y="14" width="11" height="11" rx="2" class="l0"><title>2025-11-03 · level 0</title></rect><rect x="140" y="28" width="11" height="11" rx="2" class="l0"><title>2025-11-04 · level 0</title></rect><rect x="140" y="42" width="11" height="11" rx="2" class="l0"><title>2025-11-05 · level 0</title></rect><rect x="140" y="56" width="11" height="11" rx="2" class="l0"><title>2025-11-06 · level 0</title></rect><rect x="140" y="70" width="11" height="11" rx="2" class="l0"><title>2025-11-07 · level 0</title></rect><rect x="140" y="84" width="11" height="11" rx="2" class="l0"><title>2025-11-08 · level 0</title></rect><rect x="154" y="0" width="11" height="11" rx="2" class="l0"><title>2025-11-09 · level 0</title></rect><rect x="154" y="14" width="11" height="11" rx="2" class="l0"><title>2025-11-10 · level 0</title></rect><rect x="154" y="28" width="11" height="11" rx="2" class="l0"><title>2025-11-11 · level 0</title></rect><rect x="154" y="42" width="11" height="11" rx="2" class="l0"><title>2025-11-12 · level 0</title></rect><rect x="154" y="56" width="11" height="11" rx="2" class="l0"><title>2025-11-13 · level 0</title></rect><rect x="154" y="70" width="11" height="11" rx="2" class="l0"><title>2025-11-14 · level 0</title></rect><rect x="154" y="84" width="11" height="11" rx="2" class="l0"><title>2025-11-15 · level 0</title></rect><rect x="168" y="0" width="11" height="11" rx="2" class="l0"><title>2025-11-16 · level 0</title></rect><rect x="168" y="14" width="11" height="11" rx="2" class="l0"><title>2025-11-17 · level 0</title></rect><rect x="168" y="28" width="11" height="11" rx="2" class="l0"><title>2025-11-18 · level 0</title></rect><rect x="168" y="42" width="11" height="11" rx="2" class="l0"><title>2025-11-19 · level 0</title></rect><rect x="168" y="56" width="11" height="11" rx="2" class="l0"><title>2025-11-20 · level 0</title></rect><rect x="168" y="70" width="11" height="11" rx="2" class="l0"><title>2025-11-21 · level 0</title></rect><rect x="168" y="84" width="11" height="11" rx="2" class="l0"><title>2025-11-22 · level 0</title></rect><rect x="182" y="0" width="11" height="11" rx="2" class="l0"><title>2025-11-23 · level 0</title></rect><rect x="182" y="14" width="11" height="11" rx="2" class="l0"><title>2025-11-24 · level 0</title></rect><rect x="182" y="28" width="11" height="11" rx="2" class="l0"><title>2025-11-25 · level 0</title></rect><rect x="182" y="42" width="11" height="11" rx="2" class="l0"><title>2025-11-26 · level 0</title></rect><rect x="182" y="56" width="11" height="11" rx="2" class="l0"><title>2025-11-27 · level 0</title></rect><rect x="182" y="70" width="11" height="11" rx="2" class="l0"><title>2025-11-28 · level 0</title></rect><rect x="182" y="84" width="11" height="11" rx="2" class="l0"><title>2025-11-29 · level 0</title></rect><rect x="196" y="0" width="11" height="11" rx="2" class="l0"><title>2025-11-30 · level 0</title></rect><rect x="196" y="14" width="11" height="11" rx="2" class="l0"><title>2025-12-01 · level 0</title></rect><rect x="196" y="28" width="11" height="11" rx="2" class="l0"><title>2025-12-02 · level 0</title></rect><rect x="196" y="42" width="11" height="11" rx="2" class="l0"><title>2025-12-03 · level 0</title></rect><rect x="196" y="56" width="11" height="11" rx="2" class="l0"><title>2025-12-04 · level 0</title></rect><rect x="196" y="70" width="11" height="11" rx="2" class="l0"><title>2025-12-05 · level 0</title></rect><rect x="196" y="84" width="11" height="11" rx="2" class="l0"><title>2025-12-06 · level 0</title></rect><rect x="210" y="0" width="11" height="11" rx="2" class="l0"><title>2025-12-07 · level 0</title></rect><rect x="210" y="14" width="11" height="11" rx="2" class="l0"><title>2025-12-08 · level 0</title></rect><rect x="210" y="28" width="11" height="11" rx="2" class="l0"><title>2025-12-09 · level 0</title></rect><rect x="210" y="42" width="11" height="11" rx="2" class="l0"><title>2025-12-10 · level 0</title></rect><rect x="210" y="56" width="11" height="11" rx="2" class="l0"><title>2025-12-11 · level 0</title></rect><rect x="210" y="70" width="11" height="11" rx="2" class="l0"><title>2025-12-12 · level 0</title></rect><rect x="210" y="84" width="11" height="11" rx="2" class="l0"><title>2025-12-13 · level 0</title></rect><rect x="224" y="0" width="11" height="11" rx="2" class="l0"><title>2025-12-14 · level 0</title></rect><rect x="224" y="14" width="11" height="11" rx="2" class="l0"><title>2025-12-15 · level 0</title></rect><rect x="224" y="28" width="11" height="11" rx="2" class="l0"><title>2025-12-16 · level 0</title></rect><rect x="224" y="42" width="11" height="11" rx="2" class="l0"><title>2025-12-17 · level 0</title></rect><rect x="224" y="56" width="11" height="11" rx="2" class="l0"><title>2025-12-18 · level 0</title></rect><rect x="224" y="70" width="11" height="11" rx="2" class="l0"><title>2025-12-19 · level 0</title></rect><rect x="224" y="84" width="11" height="11" rx="2" class="l0"><title>2025-12-20 · level 0</title></rect><rect x="238" y="0" width="11" height="11" rx="2" class="l0"><title>2025-12-21 · level 0</title></rect><rect x="238" y="14" width="11" height="11" rx="2" class="l0"><title>2025-12-22 · level 0</title></rect><rect x="238" y="28" width="11" height="11" rx="2" class="l0"><title>2025-12-23 · level 0</title></rect><rect x="238" y="42" width="11" height="11" rx="2" class="l0"><title>2025-12-24 · level 0</title></rect><rect x="238" y="56" width="11" height="11" rx="2" class="l0"><title>2025-12-25 · level 0</title></rect><rect x="238" y="70" width="11" height="11" rx="2" class="l0"><title>2025-12-26 · level 0</title></rect><rect x="238" y="84" width="11" height="11" rx="2" class="l0"><title>2025-12-27 · level 0</title></rect><rect x="252" y="0" width="11" height="11" rx="2" class="l0"><title>2025-12-28 · level 0</title></rect><rect x="252" y="14" width="11" height="11" rx="2" class="l0"><title>2025-12-29 · level 0</title></rect><rect x="252" y="28" width="11" height="11" rx="2" class="l0"><title>2025-12-30 · level 0</title></rect><rect x="252" y="42" width="11" height="11" rx="2" class="l0"><title>2025-12-31 · level 0</title></rect><rect x="252" y="56" width="11" height="11" rx="2" class="l0"><title>2026-01-01 · level 0</title></rect><rect x="252" y="70" width="11" height="11" rx="2" class="l0"><title>2026-01-02 · level 0</title></rect><rect x="252" y="84" width="11" height="11" rx="2" class="l0"><title>2026-01-03 · level 0</title></rect><rect x="266" y="0" width="11" height="11" rx="2" class="l0"><title>2026-01-04 · level 0</title></rect><rect x="266" y="14" width="11" height="11" rx="2" class="l0"><title>2026-01-05 · level 0</title></rect><rect x="266" y="28" width="11" height="11" rx="2" class="l0"><title>2026-01-06 · level 0</title></rect><rect x="266" y="42" width="11" height="11" rx="2" class="l0"><title>2026-01-07 · level 0</title></rect><rect x="266" y="56" width="11" height="11" rx="2" class="l0"><title>2026-01-08 · level 0</title></rect><rect x="266" y="70" width="11" height="11" rx="2" class="l0"><title>2026-01-09 · level 0</title></rect><rect x="266" y="84" width="11" height="11" rx="2" class="l0"><title>2026-01-10 · level 0</title></rect><rect x="280" y="0" width="11" height="11" rx="2" class="l0"><title>2026-01-11 · level 0</title></rect><rect x="280" y="14" width="11" height="11" rx="2" class="l0"><title>2026-01-12 · level 0</title></rect><rect x="280" y="28" width="11" height="11" rx="2" class="l0"><title>2026-01-13 · level 0</title></rect><rect x="280" y="42" width="11" height="11" rx="2" class="l0"><title>2026-01-14 · level 0</title></rect><rect x="280" y="56" width="11" height="11" rx="2" class="l0"><title>2026-01-15 · level 0</title></rect><rect x="280" y="70" width="11" height="11" rx="2" class="l0"><title>2026-01-16 · level 0</title></rect><rect x="280" y="84" width="11" height="11" rx="2" class="l0"><title>2026-01-17 · level 0</title></rect><rect x="294" y="0" width="11" height="11" rx="2" class="l0"><title>2026-01-18 · level 0</title></rect><rect x="294" y="14" width="11" height="11" rx="2" class="l0"><title>2026-01-19 · level 0</title></rect><rect x="294" y="28" width="11" height="11" rx="2" class="l0"><title>2026-01-20 · level 0</title></rect><rect x="294" y="42" width="11" height="11" rx="2" class="l0"><title>2026-01-21 · level 0</title></rect><rect x="294" y="56" width="11" height="11" rx="2" class="l0"><title>2026-01-22 · level 0</title></rect><rect x="294" y="70" width="11" height="11" rx="2" class="l0"><title>2026-01-23 · level 0</title></rect><rect x="294" y="84" width="11" height="11" rx="2" class="l0"><title>2026-01-24 · level 0</title></rect><rect x="308" y="0" width="11" height="11" rx="2" class="l0"><title>2026-01-25 · level 0</title></rect><rect x="308" y="14" width="11" height="11" rx="2" class="l0"><title>2026-01-26 · level 0</title></rect><rect x="308" y="28" width="11" height="11" rx="2" class="l0"><title>2026-01-27 · level 0</title></rect><rect x="308" y="42" width="11" height="11" rx="2" class="l0"><title>2026-01-28 · level 0</title></rect><rect x="308" y="56" width="11" height="11" rx="2" class="l0"><title>2026-01-29 · level 0</title></rect><rect x="308" y="70" width="11" height="11" rx="2" class="l0"><title>2026-01-30 · level 0</title></rect><rect x="308" y="84" width="11" height="11" rx="2" class="l0"><title>2026-01-31 · level 0</title></rect><rect x="322" y="0" width="11" height="11" rx="2" class="l0"><title>2026-02-01 · level 0</title></rect><rect x="322" y="14" width="11" height="11" rx="2" class="l0"><title>2026-02-02 · level 0</title></rect><rect x="322" y="28" width="11" height="11" rx="2" class="l0"><title>2026-02-03 · level 0</title></rect><rect x="322" y="42" width="11" height="11" rx="2" class="l0"><title>2026-02-04 · level 0</title></rect><rect x="322" y="56" width="11" height="11" rx="2" class="l0"><title>2026-02-05 · level 0</title></rect><rect x="322" y="70" width="11" height="11" rx="2" class="l0"><title>2026-02-06 · level 0</title></rect><rect x="322" y="84" width="11" height="11" rx="2" class="l0"><title>2026-02-07 · level 0</title></rect><rect x="336" y="0" width="11" height="11" rx="2" class="l0"><title>2026-02-08 · level 0</title></rect><rect x="336" y="14" width="11" height="11" rx="2" class="l0"><title>2026-02-09 · level 0</title></rect><rect x="336" y="28" width="11" height="11" rx="2" class="l0"><title>2026-02-10 · level 0</title></rect><rect x="336" y="42" width="11" height="11" rx="2" class="l0"><title>2026-02-11 · level 0</title></rect><rect x="336" y="56" width="11" height="11" rx="2" class="l0"><title>2026-02-12 · level 0</title></rect><rect x="336" y="70" width="11" height="11" rx="2" class="l0"><title>2026-02-13 · level 0</title></rect><rect x="336" y="84" width="11" height="11" rx="2" class="l0"><title>2026-02-14 · level 0</title></rect><rect x="350" y="0" width="11" height="11" rx="2" class="l0"><title>2026-02-15 · level 0</title></rect><rect x="350" y="14" width="11" height="11" rx="2" class="l0"><title>2026-02-16 · level 0</title></rect><rect x="350" y="28" width="11" height="11" rx="2" class="l0"><title>2026-02-17 · level 0</title></rect><rect x="350" y="42" width="11" height="11" rx="2" class="l0"><title>2026-02-18 · level 0</title></rect><rect x="350" y="56" width="11" height="11" rx="2" class="l0"><title>2026-02-19 · level 0</title></rect><rect x="350" y="70" width="11" height="11" rx="2" class="l0"><title>2026-02-20 · level 0</title></rect><rect x="350" y="84" width="11" height="11" rx="2" class="l0"><title>2026-02-21 · level 0</title></rect><rect x="364" y="0" width="11" height="11" rx="2" class="l0"><title>2026-02-22 · level 0</title></rect><rect x="364" y="14" width="11" height="11" rx="2" class="l0"><title>2026-02-23 · level 0</title></rect><rect x="364" y="28" width="11" height="11" rx="2" class="l0"><title>2026-02-24 · level 0</title></rect><rect x="364" y="42" width="11" height="11" rx="2" class="l0"><title>2026-02-25 · level 0</title></rect><rect x="364" y="56" width="11" height="11" rx="2" class="l0"><title>2026-02-26 · level 0</title></rect><rect x="364" y="70" width="11" height="11" rx="2" class="l0"><title>2026-02-27 · level 0</title></rect><rect x="364" y="84" width="11" height="11" rx="2" class="l0"><title>2026-02-28 · level 0</title></rect><rect x="378" y="0" width="11" height="11" rx="2" class="l0"><title>2026-03-01 · level 0</title></rect><rect x="378" y="14" width="11" height="11" rx="2" class="l0"><title>2026-03-02 · level 0</title></rect><rect x="378" y="28" width="11" height="11" rx="2" class="l0"><title>2026-03-03 · level 0</title></rect><rect x="378" y="42" width="11" height="11" rx="2" class="l0"><title>2026-03-04 · level 0</title></rect><rect x="378" y="56" width="11" height="11" rx="2" class="l0"><title>2026-03-05 · level 0</title></rect><rect x="378" y="70" width="11" height="11" rx="2" class="l0"><title>2026-03-06 · level 0</title></rect><rect x="378" y="84" width="11" height="11" rx="2" class="l0"><title>2026-03-07 · level 0</title></rect><rect x="392" y="0" width="11" height="11" rx="2" class="l0"><title>2026-03-08 · level 0</title></rect><rect x="392" y="14" width="11" height="11" rx="2" class="l0"><title>2026-03-09 · level 0</title></rect><rect x="392" y="28" width="11" height="11" rx="2" class="l0"><title>2026-03-10 · level 0</title></rect><rect x="392" y="42" width="11" height="11" rx="2" class="l0"><title>2026-03-11 · level 0</title></rect><rect x="392" y="56" width="11" height="11" rx="2" class="l0"><title>2026-03-12 · level 0</title></rect><rect x="392" y="70" width="11" height="11" rx="2" class="l0"><title>2026-03-13 · level 0</title></rect><rect x="392" y="84" width="11" height="11" rx="2" class="l0"><title>2026-03-14 · level 0</title></rect><rect x="406" y="0" width="11" height="11" rx="2" class="l0"><title>2026-03-15 · level 0</title></rect><rect x="406" y="14" width="11" height="11" rx="2" class="l0"><title>2026-03-16 · level 0</title></rect><rect x="406" y="28" width="11" height="11" rx="2" class="l0"><title>2026-03-17 · level 0</title></rect><rect x="406" y="42" width="11" height="11" rx="2" class="l0"><title>2026-03-18 · level 0</title></rect><rect x="406" y="56" width="11" height="11" rx="2" class="l0"><title>2026-03-19 · level 0</title></rect><rect x="406" y="70" width="11" height="11" rx="2" class="l0"><title>2026-03-20 · level 0</title></rect><rect x="406" y="84" width="11" height="11" rx="2" class="l0"><title>2026-03-21 · level 0</title></rect><rect x="420" y="0" width="11" height="11" rx="2" class="l0"><title>2026-03-22 · level 0</title></rect><rect x="420" y="14" width="11" height="11" rx="2" class="l0"><title>2026-03-23 · level 0</title></rect><rect x="420" y="28" width="11" height="11" rx="2" class="l0"><title>2026-03-24 · level 0</title></rect><rect x="420" y="42" width="11" height="11" rx="2" class="l0"><title>2026-03-25 · level 0</title></rect><rect x="420" y="56" width="11" height="11" rx="2" class="l0"><title>2026-03-26 · level 0</title></rect><rect x="420" y="70" width="11" height="11" rx="2" class="l0"><title>2026-03-27 · level 0</title></rect><rect x="420" y="84" width="11" height="11" rx="2" class="l0"><title>2026-03-28 · level 0</title></rect><rect x="434" y="0" width="11" height="11" rx="2" class="l0"><title>2026-03-29 · level 0</title></rect><rect x="434" y="14" width="11" height="11" rx="2" class="l0"><title>2026-03-30 · level 0</title></rect><rect x="434" y="28" width="11" height="11" rx="2" class="l0"><title>2026-03-31 · level 0</title></rect><rect x="434" y="42" width="11" height="11" rx="2" class="l0"><title>2026-04-01 · level 0</title></rect><rect x="434" y="56" width="11" height="11" rx="2" class="l0"><title>2026-04-02 · level 0</title></rect><rect x="434" y="70" width="11" height="11" rx="2" class="l0"><title>2026-04-03 · level 0</title></rect><rect x="434" y="84" width="11" height="11" rx="2" class="l0"><title>2026-04-04 · level 0</title></rect><rect x="448" y="0" width="11" height="11" rx="2" class="l0"><title>2026-04-05 · level 0</title></rect><rect x="448" y="14" width="11" height="11" rx="2" class="l0"><title>2026-04-06 · level 0</title></rect><rect x="448" y="28" width="11" height="11" rx="2" class="l0"><title>2026-04-07 · level 0</title></rect><rect x="448" y="42" width="11" height="11" rx="2" class="l0"><title>2026-04-08 · level 0</title></rect><rect x="448" y="56" width="11" height="11" rx="2" class="l0"><title>2026-04-09 · level 0</title></rect><rect x="448" y="70" width="11" height="11" rx="2" class="l0"><title>2026-04-10 · level 0</title></rect><rect x="448" y="84" width="11" height="11" rx="2" class="l0"><title>2026-04-11 · level 0</title></rect><rect x="462" y="0" width="11" height="11" rx="2" class="l0"><title>2026-04-12 · level 0</title></rect><rect x="462" y="14" width="11" height="11" rx="2" class="l0"><title>2026-04-13 · level 0</title></rect><rect x="462" y="28" width="11" height="11" rx="2" class="l0"><title>2026-04-14 · level 0</title></rect><rect x="462" y="42" width="11" height="11" rx="2" class="l0"><title>2026-04-15 · level 0</title></rect><rect x="462" y="56" width="11" height="11" rx="2" class="l0"><title>2026-04-16 · level 0</title></rect><rect x="462" y="70" width="11" height="11" rx="2" class="l0"><title>2026-04-17 · level 0</title></rect><rect x="462" y="84" width="11" height="11" rx="2" class="l0"><title>2026-04-18 · level 0</title></rect><rect x="476" y="0" width="11" height="11" rx="2" class="l0"><title>2026-04-19 · level 0</title></rect><rect x="476" y="14" width="11" height="11" rx="2" class="l1"><title>2026-04-20 · level 1</title></rect><rect x="476" y="28" width="11" height="11" rx="2" class="l1"><title>2026-04-21 · level 1</title></rect><rect x="476" y="42" width="11" height="11" rx="2" class="l3"><title>2026-04-22 · level 3</title></rect><rect x="476" y="56" width="11" height="11" rx="2" class="l3"><title>2026-04-23 · level 3</title></rect><rect x="476" y="70" width="11" height="11" rx="2" class="l4"><title>2026-04-24 · level 4</title></rect><rect x="476" y="84" width="11" height="11" rx="2" class="l0"><title>2026-04-25 · level 0</title></rect><rect x="490" y="0" width="11" height="11" rx="2" class="l4"><title>2026-04-26 · level 4</title></rect><rect x="490" y="14" width="11" height="11" rx="2" class="l3"><title>2026-04-27 · level 3</title></rect><rect x="490" y="28" width="11" height="11" rx="2" class="l1"><title>2026-04-28 · level 1</title></rect><rect x="490" y="42" width="11" height="11" rx="2" class="l1"><title>2026-04-29 · level 1</title></rect><rect x="490" y="56" width="11" height="11" rx="2" class="l1"><title>2026-04-30 · level 1</title></rect><rect x="490" y="70" width="11" height="11" rx="2" class="l1"><title>2026-05-01 · level 1</title></rect><rect x="490" y="84" width="11" height="11" rx="2" class="l1"><title>2026-05-02 · level 1</title></rect><rect x="504" y="0" width="11" height="11" rx="2" class="l1"><title>2026-05-03 · level 1</title></rect><rect x="504" y="14" width="11" height="11" rx="2" class="l2"><title>2026-05-04 · level 2</title></rect><rect x="504" y="28" width="11" height="11" rx="2" class="l1"><title>2026-05-05 · level 1</title></rect><rect x="504" y="42" width="11" height="11" rx="2" class="l1"><title>2026-05-06 · level 1</title></rect><rect x="504" y="56" width="11" height="11" rx="2" class="l1"><title>2026-05-07 · level 1</title></rect><rect x="504" y="70" width="11" height="11" rx="2" class="l1"><title>2026-05-08 · level 1</title></rect><rect x="504" y="84" width="11" height="11" rx="2" class="l1"><title>2026-05-09 · level 1</title></rect><rect x="518" y="0" width="11" height="11" rx="2" class="l1"><title>2026-05-10 · level 1</title></rect><rect x="518" y="14" width="11" height="11" rx="2" class="l1"><title>2026-05-11 · level 1</title></rect><rect x="518" y="28" width="11" height="11" rx="2" class="l1"><title>2026-05-12 · level 1</title></rect><rect x="518" y="42" width="11" height="11" rx="2" class="l1"><title>2026-05-13 · level 1</title></rect><rect x="518" y="56" width="11" height="11" rx="2" class="l1"><title>2026-05-14 · level 1</title></rect><rect x="518" y="70" width="11" height="11" rx="2" class="l1"><title>2026-05-15 · level 1</title></rect><rect x="518" y="84" width="11" height="11" rx="2" class="l1"><title>2026-05-16 · level 1</title></rect><rect x="532" y="0" width="11" height="11" rx="2" class="l0"><title>2026-05-17 · level 0</title></rect><rect x="532" y="14" width="11" height="11" rx="2" class="l1"><title>2026-05-18 · level 1</title></rect><rect x="532" y="28" width="11" height="11" rx="2" class="l1"><title>2026-05-19 · level 1</title></rect><rect x="532" y="42" width="11" height="11" rx="2" class="l1"><title>2026-05-20 · level 1</title></rect><rect x="532" y="56" width="11" height="11" rx="2" class="l1"><title>2026-05-21 · level 1</title></rect><rect x="532" y="70" width="11" height="11" rx="2" class="l1"><title>2026-05-22 · level 1</title></rect><rect x="532" y="84" width="11" height="11" rx="2" class="l1"><title>2026-05-23 · level 1</title></rect><rect x="546" y="0" width="11" height="11" rx="2" class="l1"><title>2026-05-24 · level 1</title></rect><rect x="546" y="14" width="11" height="11" rx="2" class="l1"><title>2026-05-25 · level 1</title></rect><rect x="546" y="28" width="11" height="11" rx="2" class="l1"><title>2026-05-26 · level 1</title></rect><rect x="546" y="42" width="11" height="11" rx="2" class="l1"><title>2026-05-27 · level 1</title></rect><rect x="546" y="56" width="11" height="11" rx="2" class="l1"><title>2026-05-28 · level 1</title></rect><rect x="546" y="70" width="11" height="11" rx="2" class="l1"><title>2026-05-29 · level 1</title></rect><rect x="546" y="84" width="11" height="11" rx="2" class="l0"><title>2026-05-30 · level 0</title></rect><rect x="560" y="0" width="11" height="11" rx="2" class="l1"><title>2026-05-31 · level 1</title></rect><rect x="560" y="14" width="11" height="11" rx="2" class="l1"><title>2026-06-01 · level 1</title></rect><rect x="560" y="28" width="11" height="11" rx="2" class="l1"><title>2026-06-02 · level 1</title></rect><rect x="560" y="42" width="11" height="11" rx="2" class="l1"><title>2026-06-03 · level 1</title></rect><rect x="560" y="56" width="11" height="11" rx="2" class="l2"><title>2026-06-04 · level 2</title></rect><rect x="560" y="70" width="11" height="11" rx="2" class="l1"><title>2026-06-05 · level 1</title></rect><rect x="560" y="84" width="11" height="11" rx="2" class="l0"><title>2026-06-06 · level 0</title></rect><rect x="574" y="0" width="11" height="11" rx="2" class="l0"><title>2026-06-07 · level 0</title></rect><rect x="574" y="14" width="11" height="11" rx="2" class="l1"><title>2026-06-08 · level 1</title></rect><rect x="574" y="28" width="11" height="11" rx="2" class="l1"><title>2026-06-09 · level 1</title></rect><rect x="574" y="42" width="11" height="11" rx="2" class="l2"><title>2026-06-10 · level 2</title></rect><rect x="574" y="56" width="11" height="11" rx="2" class="l1"><title>2026-06-11 · level 1</title></rect><rect x="574" y="70" width="11" height="11" rx="2" class="l0"><title>2026-06-12 · level 0</title></rect><rect x="574" y="84" width="11" height="11" rx="2" class="l1"><title>2026-06-13 · level 1</title></rect><rect x="588" y="0" width="11" height="11" rx="2" class="l1"><title>2026-06-14 · level 1</title></rect><rect x="588" y="14" width="11" height="11" rx="2" class="l1"><title>2026-06-15 · level 1</title></rect><rect x="588" y="28" width="11" height="11" rx="2" class="l0"><title>2026-06-16 · level 0</title></rect><rect x="588" y="42" width="11" height="11" rx="2" class="l1"><title>2026-06-17 · level 1</title></rect><rect x="588" y="56" width="11" height="11" rx="2" class="l1"><title>2026-06-18 · level 1</title></rect><rect x="588" y="70" width="11" height="11" rx="2" class="l0"><title>2026-06-19 · level 0</title></rect><rect x="588" y="84" width="11" height="11" rx="2" class="l1"><title>2026-06-20 · level 1</title></rect><rect x="602" y="0" width="11" height="11" rx="2" class="l1"><title>2026-06-21 · level 1</title></rect><rect x="602" y="14" width="11" height="11" rx="2" class="l1"><title>2026-06-22 · level 1</title></rect><rect x="602" y="28" width="11" height="11" rx="2" class="l1"><title>2026-06-23 · level 1</title></rect><rect x="602" y="42" width="11" height="11" rx="2" class="l2"><title>2026-06-24 · level 2</title></rect><rect x="602" y="56" width="11" height="11" rx="2" class="l1"><title>2026-06-25 · level 1</title></rect><rect x="602" y="70" width="11" height="11" rx="2" class="l1"><title>2026-06-26 · level 1</title></rect><rect x="602" y="84" width="11" height="11" rx="2" class="l1"><title>2026-06-27 · level 1</title></rect><rect x="616" y="0" width="11" height="11" rx="2" class="l1"><title>2026-06-28 · level 1</title></rect><rect x="616" y="14" width="11" height="11" rx="2" class="l1"><title>2026-06-29 · level 1</title></rect><rect x="616" y="28" width="11" height="11" rx="2" class="l1"><title>2026-06-30 · level 1</title></rect><rect x="616" y="42" width="11" height="11" rx="2" class="l2"><title>2026-07-01 · level 2</title></rect><rect x="616" y="56" width="11" height="11" rx="2" class="l2"><title>2026-07-02 · level 2</title></rect><rect x="616" y="70" width="11" height="11" rx="2" class="l1"><title>2026-07-03 · level 1</title></rect><rect x="616" y="84" width="11" height="11" rx="2" class="l1"><title>2026-07-04 · level 1</title></rect><rect x="630" y="0" width="11" height="11" rx="2" class="l1"><title>2026-07-05 · level 1</title></rect><rect x="630" y="14" width="11" height="11" rx="2" class="l1"><title>2026-07-06 · level 1</title></rect><rect x="630" y="28" width="11" height="11" rx="2" class="l1"><title>2026-07-07 · level 1</title></rect><rect x="630" y="42" width="11" height="11" rx="2" class="l1"><title>2026-07-08 · level 1</title></rect><rect x="630" y="56" width="11" height="11" rx="2" class="l1"><title>2026-07-09 · level 1</title></rect><rect x="630" y="70" width="11" height="11" rx="2" class="l1"><title>2026-07-10 · level 1</title></rect><rect x="630" y="84" width="11" height="11" rx="2" class="l1"><title>2026-07-11 · level 1</title></rect><rect x="644" y="0" width="11" height="11" rx="2" class="l1"><title>2026-07-12 · level 1</title></rect><rect x="644" y="14" width="11" height="11" rx="2" class="l0"><title>2026-07-13 · level 0</title></rect><rect x="644" y="28" width="11" height="11" rx="2" class="l1"><title>2026-07-14 · level 1</title></rect><rect x="644" y="42" width="11" height="11" rx="2" class="l1"><title>2026-07-15 · level 1</title></rect><rect x="644" y="56" width="11" height="11" rx="2" class="l1"><title>2026-07-16 · level 1</title></rect><rect x="644" y="70" width="11" height="11" rx="2" class="l1"><title>2026-07-17 · level 1</title></rect><rect x="644" y="84" width="11" height="11" rx="2" class="l0"><title>2026-07-18 · level 0</title></rect><rect x="658" y="0" width="11" height="11" rx="2" class="l1"><title>2026-07-19 · level 1</title></rect><rect x="658" y="14" width="11" height="11" rx="2" class="l1"><title>2026-07-20 · level 1</title></rect><rect x="658" y="28" width="11" height="11" rx="2" class="l1"><title>2026-07-21 · level 1</title></rect><rect x="658" y="42" width="11" height="11" rx="2" class="l1"><title>2026-07-22 · level 1</title></rect><rect x="658" y="56" width="11" height="11" rx="2" class="l1"><title>2026-07-23 · level 1</title></rect><rect x="658" y="70" width="11" height="11" rx="2" class="l1"><title>2026-07-24 · level 1</title></rect><rect x="658" y="84" width="11" height="11" rx="2" class="l1"><title>2026-07-25 · level 1</title></rect><rect x="672" y="0" width="11" height="11" rx="2" class="l1"><title>2026-07-26 · level 1</title></rect><rect x="672" y="14" width="11" height="11" rx="2" class="l1"><title>2026-07-27 · level 1</title></rect><rect x="672" y="28" width="11" height="11" rx="2" class="l1"><title>2026-07-28 · level 1</title></rect><rect x="672" y="42" width="11" height="11" rx="2" class="l1"><title>2026-07-29 · level 1</title></rect><rect x="672" y="56" width="11" height="11" rx="2" class="l1"><title>2026-07-30 · level 1</title></rect><rect x="672" y="70" width="11" height="11" rx="2" class="l1"><title>2026-07-31 · level 1</title></rect><rect x="672" y="84" width="11" height="11" rx="2" class="l0"><title>2026-08-01 · level 0</title></rect><rect x="686" y="0" width="11" height="11" rx="2" class="l1"><title>2026-08-02 · level 1</title></rect><rect x="686" y="14" width="11" height="11" rx="2" class="l1"><title>2026-08-03 · level 1</title></rect><rect x="686" y="28" width="11" height="11" rx="2" class="l2"><title>2026-08-04 · level 2</title></rect><rect x="686" y="42" width="11" height="11" rx="2" class="l1"><title>2026-08-05 · level 1</title></rect><rect x="686" y="56" width="11" height="11" rx="2" class="l0"><title>2026-08-06 · level 0</title></rect><rect x="686" y="70" width="11" height="11" rx="2" class="l1"><title>2026-08-07 · level 1</title></rect><rect x="686" y="84" width="11" height="11" rx="2" class="l0"><title>2026-08-08 · level 0</title></rect><rect x="700" y="0" width="11" height="11" rx="2" class="l0"><title>2026-08-09 · level 0</title></rect><rect x="700" y="14" width="11" height="11" rx="2" class="l0"><title>2026-08-10 · level 0</title></rect><rect x="700" y="28" width="11" height="11" rx="2" class="l1"><title>2026-08-11 · level 1</title></rect><rect x="700" y="42" width="11" height="11" rx="2" class="l1"><title>2026-08-12 · level 1</title></rect><rect x="700" y="56" width="11" height="11" rx="2" class="l1"><title>2026-08-13 · level 1</title></rect><rect x="700" y="70" width="11" height="11" rx="2" class="l1"><title>2026-08-14 · level 1</title></rect><rect x="700" y="84" width="11" height="11" rx="2" class="l1"><title>2026-08-15 · level 1</title></rect><rect x="714" y="0" width="11" height="11" rx="2" class="l1"><title>2026-08-16 · level 1</title></rect><rect x="714" y="14" width="11" height="11" rx="2" class="l1"><title>2026-08-17 · level 1</title></rect><rect x="714" y="28" width="11" height="11" rx="2" class="l1"><title>2026-08-18 · level 1</title></rect><rect x="714" y="42" width="11" height="11" rx="2" class="l1"><title>2026-08-19 · level 1</title></rect><rect x="714" y="56" width="11" height="11" rx="2" class="l1"><title>2026-08-20 · level 1</title></rect><rect x="714" y="70" width="11" height="11" rx="2" class="l2"><title>2026-08-21 · level 2</title></rect><rect x="714" y="84" width="11" height="11" rx="2" class="l2"><title>2026-08-22 · level 2</title></rect><rect x="728" y="0" width="11" height="11" rx="2" class="l1"><title>2026-08-23 · level 1</title></rect><rect x="728" y="14" width="11" height="11" rx="2" class="l1"><title>2026-08-24 · level 1</title></rect><rect x="728" y="28" width="11" height="11" rx="2" class="l1"><title>2026-08-25 · level 1</title></rect><rect x="728" y="42" width="11" height="11" rx="2" class="l1"><title>2026-08-26 · level 1</title></rect><rect x="728" y="56" width="11" height="11" rx="2" class="l0"><title>2026-08-27 · level 0</title></rect></svg>